<svg width="92" height="92" fill="none" xmlns="http://www.w3.org/2000/svg"><path d="M90.203 32.344H73.17l1.132-1.977c.233-.413.305-.898.18-1.365a1.843 1.843 0 0 0-.845-1.096l-4.42-2.552c.09-.7.125-1.348.125-1.995 0-.629-.035-1.293-.125-1.994l4.42-2.552c.413-.233.719-.629.845-1.096a1.808 1.808 0 0 0-.18-1.365l-5.39-9.344a1.816 1.816 0 0 0-2.463-.665L61.992 8.93a17.05 17.05 0 0 0-3.414-1.976V1.797C58.578.809 57.77 0 56.781 0H46c-.988 0-1.797.809-1.797 1.797v5.157A17.047 17.047 0 0 0 40.79 8.93l-4.474-2.587a1.8 1.8 0 0 0-2.462.665l-5.39 9.344a1.808 1.808 0 0 0-.18 1.365c.126.467.431.845.844 1.096l4.42 2.552c-.09.7-.125 1.366-.125 1.994 0 .647.036 1.294.126 1.995l-4.42 2.552a1.793 1.793 0 0 0-.845 1.096c-.126.467-.054.952.18 1.365l1.131 1.977H14.376v-8.985c0-.988-.809-1.797-1.797-1.797H9.883C4.438 21.563 0 26.002 0 31.445v50.672C0 87.562 4.438 92 9.883 92h33.422c.988 0 1.797-.809 1.797-1.797 0-.988-.809-1.797-1.797-1.797H9.883a6.296 6.296 0 0 1-6.29-6.289 6.296 6.296 0 0 1 6.29-6.289h2.695c.988 0 1.797-.809 1.797-1.797V35.937h17.304l2.174 3.774c.503.862 1.6 1.15 2.462.665l4.474-2.588a17.05 17.05 0 0 0 3.414 1.977v5.157c0 .988.809 1.797 1.797 1.797h3.594v8.265H35.219c-.989 0-1.797.809-1.797 1.797v10.063h-8.984c-.989 0-1.797.808-1.797 1.797v10.78c0 .99.808 1.798 1.797 1.798H46c.988 0 1.797-.809 1.797-1.797V68.64c0-.989-.809-1.797-1.797-1.797h-8.984v-8.266h28.75v8.266H56.78c-.988 0-1.797.808-1.797 1.797v10.78c0 .99.809 1.798 1.797 1.798h21.563c.988 0 1.797-.809 1.797-1.797V68.64c0-.989-.809-1.797-1.797-1.797h-8.985V56.78c0-.988-.808-1.797-1.796-1.797H53.187V46.72h3.594c.989 0 1.797-.809 1.797-1.797v-5.157a17.053 17.053 0 0 0 3.414-1.977l4.474 2.588a1.8 1.8 0 0 0 2.462-.665l2.174-3.773h17.304v52.468h-28.93c-.988 0-1.796.809-1.796 1.797 0 .988.808 1.797 1.797 1.797h30.726c.988 0 1.797-.809 1.797-1.797V34.141c0-.989-.809-1.797-1.797-1.797zm-79.422 39.89h-.898c-2.39 0-4.582.845-6.29 2.264V31.445a6.296 6.296 0 0 1 6.29-6.289h.898v47.078zm33.422 5.391H26.234v-7.188h17.97v7.188zm32.344 0H58.578v-7.188h17.969v7.188zm-9.829-41.274l-3.971-2.3a1.789 1.789 0 0 0-2.066.197 14.477 14.477 0 0 1-4.493 2.606 1.783 1.783 0 0 0-1.186 1.689v4.582h-7.187v-4.582c0-.755-.485-1.438-1.186-1.69a14.13 14.13 0 0 1-4.492-2.605 1.819 1.819 0 0 0-2.067-.197l-3.97 2.3-3.595-6.217 3.936-2.265a1.775 1.775 0 0 0 .862-1.886c-.18-.989-.27-1.815-.27-2.624 0-.79.09-1.635.27-2.623a1.802 1.802 0 0 0-.862-1.887l-3.936-2.282L36.1 10.35l3.971 2.3a1.789 1.789 0 0 0 2.067-.198 14.474 14.474 0 0 1 4.492-2.605 1.783 1.783 0 0 0 1.186-1.69V3.595h7.187v4.582c0 .754.485 1.437 1.186 1.689a14.13 14.13 0 0 1 4.492 2.605 1.819 1.819 0 0 0 2.067.198l3.971-2.3 3.594 6.217-3.953 2.282a1.775 1.775 0 0 0-.863 1.887c.18.988.27 1.815.27 2.623 0 .791-.09 1.636-.27 2.624a1.8 1.8 0 0 0 .863 1.886l3.935 2.265-3.576 6.199z" fill="#C7C7C7"/></svg>