<svg fill="none" height="96" width="96" xmlns="http://www.w3.org/2000/svg"><g fill="#c7c7c7"><path d="m95.83 64.219-6.562-14.663a1.601 1.601 0 0 0 -.919-.862 1.625 1.625 0 0 0 -1.256.075l-9.412 4.725v-51.9a1.593 1.593 0 0 0 -1.594-1.594h-50.457c-.882 0-1.594.713-1.594 1.594v57.712l-13.294-7.181c-.75-.413-1.725-.131-2.156.619l-6.656 11.644a1.595 1.595 0 0 0 .6 2.174 1.5 1.5 0 0 0 .787.207c.563 0 1.088-.282 1.388-.806l5.887-10.275 12.769 6.918c.019.038.075.056.094.075l-.02.019-10.105 17.4c0 .019 0 .019-.02.038l-.712 1.237-10.35-4.444c-.806-.337-1.762.019-2.1.844a1.62 1.62 0 0 0 .844 2.1l11.644 5.006c.206.094.412.132.637.132.563 0 1.088-.282 1.388-.788l.712-1.219 2.663 1.275c.225.113.45.169.694.169.58 0 1.125-.3 1.406-.844l.169-.3c.468.319 1.012.638 1.575 1.013a3.185 3.185 0 0 0 1.33 2.4l1.65 1.162a3.164 3.164 0 0 0 1.8.582c.113 0 .226 0 .338-.038.207.281.47.544.77.769l1.818 1.275a3.236 3.236 0 0 0 1.837.581c.132 0 .263 0 .375-.019.188.263.432.488.713.694l1.519 1.05a3.05 3.05 0 0 0 1.762.581c.169 0 .338-.018.488-.056.206-.037.412-.075.6-.169.093.056.168.15.28.207l1.482 1.03a2.94 2.94 0 0 0 1.688.526c.618 0 1.237-.188 1.743-.563l2.382 1.219a3.971 3.971 0 0 0 3.037.263 3.879 3.879 0 0 0 2.308-1.933l.282-.487c.13-.244.225-.507.3-.769.525.206 1.05.356 1.575.356 1.237 0 2.475-.581 3.6-1.706.45-.45.73-.919.9-1.35.187.038.375.075.58.075.526 0 1.05-.112 1.557-.338.994-.412 1.838-1.2 2.363-2.193a7.1 7.1 0 0 0 .468-1.069c1.782-.638 5.25-2.044 7.37-3.825a12.14 12.14 0 0 0 1.105-1.088l.694 1.388c.206.375.563.694.975.825.15.056.3.056.469.056.281 0 .544-.056.787-.206l5.27-3h.037l14.68-6.563a1.607 1.607 0 0 0 .807-2.118c-.356-.806-1.294-1.163-2.119-.806l-13.2 5.906-7.425-16.556 5.588-2.794h.019l.093-.056c.113-.038.225-.038.32-.094l10.124-5.081 5.888 13.143c.262.6.843.956 1.462.956.225 0 .431-.037.656-.13a1.636 1.636 0 0 0 .807-2.138zm-78.842 16.011 9.3-16.069.525.263-8.775 16.313zm10.106.957c.15-.207.375-.357.619-.376a.881.881 0 0 1 .731.17.94.94 0 0 1 .413.805.875.875 0 0 1 -.057.32s-2.08 3.055-2.08 3.074v.019c0 .019-.02.037-.02.056 0 0 0 .019-.018.019v-.019l-1.613-1.087zm7.763 1.762-3.282 4.669-.168.206-1.82-1.256 3.413-4.93c.338-.488 1.013-.6 1.37-.338.055.038.168.15.205.169.225.169.375.394.432.675a.968.968 0 0 1 -.15.806zm.9 7.087-1.275-.88 1.968-2.85c.282-.357.75-.45 1.107-.188.206.15.337.375.337.637a.763.763 0 0 1 -.15.45zm5.325-1.856a.686.686 0 0 1 .9-.037c.225.187.3.506.187.806l-1.875 2.681-1.087-.769 1.875-2.68zm6.168 3.694-.28.506a.741.741 0 0 1 -.45.375.847.847 0 0 1 -.6-.056l-1.838-.938.712-1.012c.169-.244.3-.487.394-.769l1.706.9c.244.132.356.338.375.45a.617.617 0 0 1 -.019.544zm10.088-5.156c-.169.075-.356.094-.45.037l-15.788-8.269a1.59 1.59 0 0 0 -2.156.675 1.59 1.59 0 0 0 .675 2.157l13.931 7.293c0 .132-.13.282-.243.394-1.05 1.05-1.557.788-1.894.619l-6.9-3.619c-.019 0-.019-.019-.019-.019a3.717 3.717 0 0 0 -.694-.6 3.593 3.593 0 0 0 -1.668-.6 3.572 3.572 0 0 0 -1.538.113 3.828 3.828 0 0 0 -2.4-1.931c.019-.038.019-.075.019-.113a3.537 3.537 0 0 0 -.038-1.256c-.206-1.125-.825-2.1-1.65-2.662-.056-.038-.168-.15-.206-.17a4.303 4.303 0 0 0 -5.269.3 3.665 3.665 0 0 0 -.806-.712 4.184 4.184 0 0 0 -3.112-.694c-1.107.17-2.063.807-2.7 1.707l-1.352 1.932c-.488-.3-.9-.581-1.294-.844l8.044-14.962a17.18 17.18 0 0 0 3.112-.056c-.337.3-.525.75-.506 1.237.019.469.112.938.262 1.406.075.244.17.488.282.694 1.068 2.456 3.656 3.994 6.375 3.881l6.037-.075c.169.281 13.65 6.45 13.65 6.45.356.169.6.469.713.825.056.244.056.488 0 .694-.32.169-.994.375-1.425.206l-14.625-7.331a1.614 1.614 0 0 0 -2.157.713 1.62 1.62 0 0 0 .713 2.156l14.494 7.275.018.019c.507.262 1.67.9 1.575 1.425a1.136 1.136 0 0 0 0 .356c-.018.168-.675 1.2-1.012 1.35zm9.394-6.6c-1.107.918-2.888 1.819-4.538 2.531.15-.15.263-.3.356-.469a4.433 4.433 0 0 0 .282-3.319 4.345 4.345 0 0 0 -1.107-1.8 4.099 4.099 0 0 0 -1.237-.918l-1.688-.806c-.056-.057-5.718-2.625-5.737-2.644a35.419 35.419 0 0 1 -4.05-2.981c-.3-.263-.713-.413-1.069-.394l-8.644.112c-1.256.075-2.512-.562-3.15-1.575l13.894-2.306c.281-.075.881-.056 2.119.375.075.038 2.25.938 2.25.938 1.256.58 2.419 1.106 3.431 1.256.338.056.825.056 1.575-.094.169-.038 3.094-1.069 3.15-1.106l5.719 11.437c-.394.563-.938 1.238-1.556 1.763zm-32.439-15.206c1.444-.637 4.013-1.575 5.775-1.368.019 0 .506.056 1.275.187zm41.119 13.482-2.7 1.518-8.119-16.256 3.469-1.743 7.35 16.48zm-25.35-16.332c-1.519-.412-2.719-.637-3.563-.806-2.268-.45-4.256-.825-6.037-.881-1.669-.056-4.519.15-8.1 1.894-.844.075-1.706.075-2.625 0-.019 0-.019-.019-.038-.019l-2.475-1.2v-57.844h47.25v51.825l-12.862 6.469a1.512 1.512 0 0 0 -.806.919c-.132.394-.094.825.093 1.219l.225.43c-.6.282-1.125.47-1.5.6-.28.076-1.256.3-1.312.3-.581-.074-1.594-.562-2.606-1.012a46.784 46.784 0 0 0 -5.644-1.894z"/><path d="m65.813 38.587a1.78 1.78 0 0 1 1.781 1.782h3.206c0-2.194-1.425-4.032-3.393-4.707v-2.08h-3.207v2.08c-1.968.675-3.393 2.513-3.393 4.707a4.985 4.985 0 0 0 4.987 4.987 1.78 1.78 0 0 1 1.781 1.781c0 .975-.806 1.782-1.78 1.782a1.78 1.78 0 0 1 -1.782-1.782h-3.206c0 2.194 1.425 4.032 3.393 4.707v2.08h3.207v-2.08c1.968-.675 3.393-2.513 3.393-4.707a4.985 4.985 0 0 0 -4.987-4.987 1.78 1.78 0 1 1 0-3.563zm-23.645 20.607h13.837v-3.206h-3.112v-19.07l-6.806 2.645v-.057a2.105 2.105 0 0 0 -2.119-2.118h-8.625a2.105 2.105 0 0 0 -2.119 2.118v16.5h-3.243v3.207h12.187v-.02zm7.538-17.588v14.4h-4.332v-12.712l4.331-1.688zm-13.313-1.03h6.487v.243l-.712.281v14.906h-5.775zm-5.961-34.182h14.4v3.206h-14.4zm0 6.412h41.606v3.207h-41.606zm0 6.394h41.606v3.206h-41.606zm0 6.394h24v3.206h-24zm0 6.412h9.6v3.206h-9.6z"/></g></svg>