<svg xmlns="http://www.w3.org/2000/svg" height="64" width="52" fill="none"><path d="M43.71 21.712A17.85 17.85 0 0 0 37.813 10.7 17.848 17.848 0 0 0 26 6.239a17.847 17.847 0 0 0-11.81 4.46 17.85 17.85 0 0 0-5.897 11.01.937.937 0 0 0 1.858.248c1.06-7.892 7.873-13.843 15.85-13.843 7.978 0 14.792 5.953 15.85 13.847a.938.938 0 0 0 1.858-.249zm-.792 3.565a.937.937 0 0 0-1.046.815c-.988 7.985-7.811 14.007-15.87 14.007-8.066 0-14.89-6.026-15.872-14.018a.937.937 0 1 0-1.861.229c1.099 8.93 8.722 15.664 17.733 15.664 9.004 0 16.626-6.729 17.73-15.651a.937.937 0 0 0-.814-1.046z" fill="#c7c7c7"/><path d="M31.425 30.019h-2.101v-16.08a1.21 1.21 0 0 0-1.208-1.208h-3.161c-.284 0-.56.1-.777.282l-5.743 4.82a1.203 1.203 0 0 0-.175 1.669l1.883 2.41c.2.256.5.423.822.458.323.035.65-.064.9-.27l1.31-1.084v9.002H20.52a1.21 1.21 0 0 0-1.208 1.209v2.866a1.21 1.21 0 0 0 1.208 1.208h10.904a1.21 1.21 0 0 0 1.208-1.208v-2.866a1.21 1.21 0 0 0-1.208-1.208zm-.667 3.408h-9.57v-1.533h2.653a1.21 1.21 0 0 0 1.208-1.208V19.598c0-.473-.266-.892-.694-1.093a1.197 1.197 0 0 0-1.284.162l-1.873 1.55-1.064-1.362 5.063-4.25h2.252v16.08a1.21 1.21 0 0 0 1.208 1.209h2.101z" fill="#c7c7c7"/><path d="M51.422 53.637l-8.446-13.211a4.035 4.035 0 0 0 2.398-1.516c.68-.901.952-2.055.745-3.165a2.16 2.16 0 0 1 1.155-2.32 4.035 4.035 0 0 0 2.077-2.502 4.035 4.035 0 0 0-.449-3.22 2.16 2.16 0 0 1 .24-2.581 4.034 4.034 0 0 0 1.032-3.083 4.034 4.034 0 0 0-1.582-2.841 2.16 2.16 0 0 1-.709-2.493 4.036 4.036 0 0 0-.15-3.248 4.035 4.035 0 0 0-2.502-2.078 2.16 2.16 0 0 1-1.562-2.068c0-1.13-.479-2.214-1.313-2.974a4.035 4.035 0 0 0-3.083-1.034 2.16 2.16 0 0 1-2.204-1.365 4.034 4.034 0 0 0-2.3-2.299 4.035 4.035 0 0 0-3.248.15 2.16 2.16 0 0 1-2.547-.476A4.034 4.034 0 0 0 25.999 0c-1.13 0-2.213.479-2.974 1.313a2.16 2.16 0 0 1-2.548.476 4.035 4.035 0 0 0-3.248-.15 4.035 4.035 0 0 0-2.3 2.3 2.16 2.16 0 0 1-2.204 1.364 4.034 4.034 0 0 0-3.082 1.033 4.035 4.035 0 0 0-1.314 2.975 2.16 2.16 0 0 1-1.562 2.068 4.034 4.034 0 0 0-2.501 2.078 4.035 4.035 0 0 0-.151 3.248 2.16 2.16 0 0 1-.71 2.493 4.035 4.035 0 0 0-1.581 2.84 4.035 4.035 0 0 0 1.033 3.084 2.16 2.16 0 0 1 .239 2.58 4.035 4.035 0 0 0-.449 3.221 4.034 4.034 0 0 0 2.077 2.502 2.16 2.16 0 0 1 1.155 2.32 4.034 4.034 0 0 0 .745 3.165 4.036 4.036 0 0 0 2.399 1.516L.576 53.637a1.494 1.494 0 0 0-.019 1.59c.3.493.843.768 1.417.717l8.244-.725 2.802 7.787a1.493 1.493 0 0 0 1.418.994c.51 0 .982-.256 1.262-.694L26 47.196l10.298 16.11a1.492 1.492 0 0 0 1.434.684 1.493 1.493 0 0 0 1.247-.985l2.801-7.786 8.244.725a1.494 1.494 0 0 0 1.417-.718 1.494 1.494 0 0 0-.02-1.589zm-48.859.373l8.235-12.88c.293.297.502.68.582 1.109.151.809.55 1.547 1.125 2.118l-5.864 9.295zm9.678 1.294l-.356-.99a1.504 1.504 0 0 0-1.546-.988l-1.351.119 5.12-8.115c.75.24 1.562.259 2.33.04a2.158 2.158 0 0 1 1.859.337zm2.287 6.355l-1.482-4.117 6.54-10.365c.545.49 1.22.83 1.952.967a4.03 4.03 0 0 0 1.654-.038zm12.055-16.52a.952.952 0 0 0-.183-.022 4.047 4.047 0 0 0-.4-.022 4.13 4.13 0 0 0-.402.022.943.943 0 0 0-.184.022 4.004 4.004 0 0 0-1.84.765 2.13 2.13 0 0 1-1.692.397 2.127 2.127 0 0 1-1.433-.982 3.97 3.97 0 0 0-.257-.362 4.043 4.043 0 0 0-4.267-1.39c-.588.168-1.2.082-1.72-.24a2.127 2.127 0 0 1-.982-1.433 4.041 4.041 0 0 0-2.225-2.888.931.931 0 0 0-.18-.081 3.976 3.976 0 0 0-1.18-.3 2.127 2.127 0 0 1-1.518-.845 2.127 2.127 0 0 1-.398-1.691 4.042 4.042 0 0 0-2.162-4.343 2.127 2.127 0 0 1-1.11-1.336 2.127 2.127 0 0 1 .24-1.72 4.043 4.043 0 0 0-.448-4.831 2.127 2.127 0 0 1-.552-1.648c.057-.61.357-1.148.846-1.517a4.043 4.043 0 0 0 1.327-4.666 2.127 2.127 0 0 1 .08-1.736 2.126 2.126 0 0 1 1.337-1.11 4.043 4.043 0 0 0 2.923-3.87c0-.613.25-1.178.702-1.59a2.126 2.126 0 0 1 1.648-.552 4.041 4.041 0 0 0 4.124-2.554 2.127 2.127 0 0 1 1.229-1.229 2.127 2.127 0 0 1 1.735.08 4.043 4.043 0 0 0 4.769-.89 2.127 2.127 0 0 1 1.589-.702 2.13 2.13 0 0 1 1.59.701 4.043 4.043 0 0 0 4.768.892 2.128 2.128 0 0 1 1.735-.08 2.127 2.127 0 0 1 1.229 1.228 4.042 4.042 0 0 0 4.124 2.554c.61-.057 1.195.14 1.647.552.453.412.702.977.702 1.59a4.042 4.042 0 0 0 2.924 3.87 2.126 2.126 0 0 1 1.336 1.11c.273.548.301 1.165.08 1.736a4.043 4.043 0 0 0 1.328 4.666c.488.369.789.908.845 1.518.057.61-.14 1.194-.552 1.647a4.042 4.042 0 0 0-.448 4.83c.323.52.408 1.132.24 1.72a2.126 2.126 0 0 1-1.11 1.337 4.043 4.043 0 0 0-2.162 4.343 2.127 2.127 0 0 1-.398 1.69 2.127 2.127 0 0 1-1.517.846 4.013 4.013 0 0 0-1.182.3.936.936 0 0 0-.178.08 4.041 4.041 0 0 0-2.225 2.889 2.128 2.128 0 0 1-.982 1.433 2.128 2.128 0 0 1-1.72.24 4.043 4.043 0 0 0-4.524 1.752 2.13 2.13 0 0 1-1.434.982 2.128 2.128 0 0 1-1.69-.397 4.003 4.003 0 0 0-1.842-.765zm10.887 16.52l-8.665-13.554a4.04 4.04 0 0 0 1.655.04 4.033 4.033 0 0 0 1.953-.967l6.539 10.364zm4.19-8.333a1.503 1.503 0 0 0-1.547.989l-.356.99-6.056-9.598a2.158 2.158 0 0 1 1.859-.336c.768.218 1.58.199 2.33-.04l5.12 8.114zm3.697.326l-5.864-9.295a4.035 4.035 0 0 0 1.125-2.118c.08-.43.29-.812.582-1.11l8.235 12.881z" fill="#c7c7c7"/></svg>