<svg fill="none" height="17" width="17" xmlns="http://www.w3.org/2000/svg"><clipPath id="a"><path d="M0 0h17v17H0z" transform="rotate(180 8.5 8.5)"/></clipPath><g clip-path="url(#a)"><path d="M3.777 9.163l7.567 7.564c.176.176.407.273.656.273s.484-.097.657-.273l.56-.556a.932.932 0 0 0 0-1.317L6.861 8.5l6.361-6.358c.177-.176.273-.407.273-.656s-.096-.484-.273-.657l-.556-.556C12.491.097 12.26 0 12.011 0s-.484.097-.657.273l-7.577 7.57a.91.91 0 0 0-.27.66c0 .25.093.484.27.66z" fill="#c7c7c7"/></g></svg>