<svg fill="none" height="16" viewBox="0 0 16 16" width="16" xmlns="http://www.w3.org/2000/svg"><path d="m6.58498 7.99983-6.291802-6.2918c-.3909032-.39057-.3909032-1.024284 0-1.414853.390902-.3909027 1.023952-.3909027 1.414852 0l6.2918 6.291803 6.29217-6.291803c.3909-.3909027 1.0239-.3909027 1.4148 0 .3909.390569.3909 1.024283 0 1.414853l-6.29211 6.2918 6.29211 6.29177c.3909.3906.3909 1.0243 0 1.4149-.1954.1951-.4516.2928-.7074.2928s-.512-.0977-.7074-.2931l-6.29217-6.29185-6.2918 6.29185c-.19545.1954-.4516.2931-.70743.2931-.255817 0-.511971-.0977-.707422-.2931-.3909032-.3906-.3909032-1.0243 0-1.4149z" fill="#e06627"/></svg>