<svg fill="none" height="69" width="221" xmlns="http://www.w3.org/2000/svg"><g fill="#008f52"><path clip-rule="evenodd" d="m66.469 28.616s-.08.483.403.403c.563-.161 0-.322-.403-.402zm2.9 2.977c-1.128.322-2.417.805-4.028 2.011.08-.08.16-.563.322-.804.242-.402.483-.161.967-.402.16-.161 0-.322 0-.563.886-.322 1.208-.805 2.175-1.127 1.29-.482 5.56-.643 5.64-.643.483-1.61-2.74-.161-3.384-.322-.161-.08-2.014-.161.161-.563.242.08.645.08.645.08.644-.241.805-1.046 1.692-1.046.886 0 2.175.966 2.739 1.046.725.161 1.047-.16 1.45-.16 2.74-.403 4.431.16 4.995 2.09.081.242-.16.564.162.725.16.08.241 0 .322 0 .403.16 1.934 1.207 1.37 2.011-.484.563-1.128.242-1.854 0l.403-.08c1.128.322 1.29-.403.323-.724-.242-.08-.887-.08-1.209-.242-.403-.241-.161-1.126-.806-1.287-.805-.16-1.047.322-1.128.724-.886 0-1.208-.563-2.094-.804-3.062-.966-7.252-.161-8.218 0 .16-.161.322-.322 0-.403-.323-.24-.564.161-.645.483zm18.371 13.597c.403.322-.887 3.138.241 2.413 0 0 .645-1.85-.241-2.413zm-1.853-10.378c.483.644.805 1.93 1.45 2.092.242.08 0-.322 0-.322-.242-.724-.886-1.046-1.209-1.77zm-12.327-2.976c-.08 0-1.29.643-.725.643 4.19.08 4.19-.965.725-.643zm9.265-1.931c.08.16.161.402.161.563.484 1.126 2.176 1.448 2.498 1.93.161.161 0 .483.08.564.323.563 1.45 1.207 1.934 1.609 0 0 1.209.563 1.611.16.484-.482-1.772-.563-1.772-.723 0-.161.161-.644 0-.966s-.806-.724-.967-1.126c0-.161.161-.402.08-.483-.16-.16-.402 0-.563 0-1.128-.16-.967-1.448-1.853-2.092-1.612-1.206-3.465-1.608-5.076-1.206.242.08 3.223.402 3.867 1.77zm-13.777 6.355c.483 0 .806-.483 1.37-.563 1.45-.483 2.578-.322 3.947.402.403.161.564.563.806.563.564.08 1.128-.24 2.014 0 .806.242 1.934 1.368 2.74 1.529 1.128.16.16-1.368-.484-1.448.484-1.126 1.612-1.287 2.176 1.448-.162-.08-.242-.161-.484-.161v.483c.242 2.091 2.417 2.011 2.417 2.011 1.209.08.806 2.735 1.45 3.298 0 0-.564 2.977.162 5.23-.242.24-1.854 2.172-1.128 2.896.483.482 1.45-.483.886 1.448-.403 0 0 1.448-.484 2.011-1.208 1.448-3.464.402-2.417 1.529-.322.16-1.933 1.206-2.739 1.689-1.773.724-5.479.644-7.251.08-.322-.16-.564-.724-.806-.804s-.564.16-.806.08c-.241-.08-4.028-1.126-4.834-4.585-.08-.161.161-.242.161-.402-.08-.805-.725-1.207-.483-2.092-.161-.08-.322 0-.403-.161-.08-.241.161-.402.161-.563 0-.08-.644 0-.966-.242-.806-.482.644-1.689.402-2.413.242-.16.564-.322.645-.644.242-.724-.886-2.01-2.095-2.091.403-.805-.564-.483.806-2.736.403-.804 1.208-1.206 1.692-1.448.16-.16.16-1.448.725-2.091.886-.805 2.578-.483 3.061-.563l.162-.242c-.242-.08-.242-.16-.403-.241 1.208-.161 1.933-.563 3.061-.724-.805-.242-2.256-.08-3.061.08zm3.948-9.09c.644-.242 2.095-.403 3.222-.403.806 0 1.531.161 1.531.161s1.853 1.046.161 1.046c-1.37-.08-5.64-.563-4.914-.805zm-9.91 3.54c.322-.081.564.16.403.24h.725c1.289-.563 1.37.322 1.128.725.483-.483.483-1.288.967-1.931 1.047.241 1.37-.403 2.014-.966-.645 0-2.74.724-2.981.966 0 .16.16.482.08.563 0 0-.967-.644-.483-1.046.08-.08.725-.563 1.128-.804 1.772-.805 3.948-1.207 5.64-1.77.886-.322 4.592-.483 4.673-.483.402-.08.483.322 1.047.241.161 0 1.29-.804 1.53-.885 1.129-.16 1.451 1.127 1.773 1.77.484-.08 1.29-.241 1.773-.08.403.16.725.885.725 1.126 1.128 0 1.853.805 2.74 1.287-.162.403-.162.483-.242.885.483 0 .805.08 1.45.08.08.322.725 1.127.242 1.288.483.241 1.853 1.207 2.094 1.69.242.562.484.804.806 1.447l.161.242c.484.322 2.498 2.815 2.176 2.735-.242-.08-.806-.644-1.29-1.207 1.128 1.69 2.015 3.057 2.66 5.31.885 3.379.563 8.608.08 9.01.241.644-.323 3.62-.564 4.103-.806 1.61-1.853 3.379-2.9 4.827-.242.402-2.74 1.93-3.626 3.057-1.29 1.448-1.128 2.414-1.209 2.494-.483.241-.644-.08-1.128 0-.564.08-3.142-.16-4.673.965-.322.242-.564.644-.805.644-.484.16-3.304.644-5.399.483-2.094-.161-4.028-.805-5.317-1.127-.806-.24-1.45-.482-2.417-.563.16-.482.16-.885-.322-1.126-.484-.16-.887.241-1.45 0v-.563c-.565.483-.645-.08-1.531-.322v-.241c.241-.08.483 0 .725 0-.806-.483-1.692-1.046-2.579-1.448-.805-.322-.402-.644-.402-.644s-.484-.885-.806-.16c-.08.16-.08.401-.161.482.403.16.725.724.241.563-.16 0-.402-.322-.483-.483-.08 0-.161-.08-.242-.16v-.403c-.16-.241-.644-.563-1.047-1.046-.564-.804-1.047-1.93-1.128-2.252-.483-1.046-.322-2.012-.806-2.736 0 0-.564-.16-.805-.16.16-.564.241-.644.644-1.046-.161-.483-.403-.805-.242-1.287 0-.08.323-.242.242-.644-.08-7.562-1.772-5.631-1.933-5.712.16-.724.725-1.85.16-2.735h.404v-.322c-.162 0-.242 0-.403-.08s-.242-.161-.403-.322c-.08 0-.08-.161-.08-.242.24.08.483 0 .805.08-.242-.482-.08-1.367-.08-1.367.241-.724 1.208-4.988 3.706-6.677.483-.483 1.127-.16 1.45-.885.16.16.403.322.564.483.322-1.127 2.256-1.85 3.384-2.414.16-.16.644.08 1.047 0 .08-.08.161-.08.161-.08-.483-.161-2.497-.805-1.772-.966.08-.24-.081-.321.16-.402zm0 20.272c-.484-.16.242.483.483.563.645.08-.161-.563-.483-.563zm-.564-.885c-1.048-.16 0 .563 0 .563.644.081.483-.482 0-.563zm-5.318-9.251c-.241-.161-.241 1.367 0 1.367 0 .161.242-1.206 0-1.367zm-23.929-5.23h-12.972v16.25h-14.823v-28.398c0-3.7.16-6.356.483-7.884.564-3.218 2.095-5.792 4.27-7.723 1.773-1.448 4.029-2.494 6.848-3.057 1.934-.403 4.432-.564 7.574-.564h8.62v13.355h-8.378c-1.45 0-2.418.16-3.062.644-1.047.724-1.53 2.091-1.53 4.183v.965h13.051v12.229z" fill-rule="evenodd"/><path d="m51.563 4.24h-13.616v47.626h13.616z"/><path clip-rule="evenodd" d="m121.257 17.836h-7.815v33.95h-14.825v-33.95h-7.977v-13.596h30.616z" fill-rule="evenodd"/><path d="m51.484 56.05h-45.843v3.057h45.843zm153.724 0h-106.673v3.057h106.673z"/><path clip-rule="evenodd" d="m144.862 38.995h-14.341v-4.425c.886-.08 4.512.08 5.317 0 0-2.735-1.933-4.103-4.914-4.344-2.82-.08-4.512 1.689-5.237 4.344-1.048 8.608 8.218 6.918 13.938 7.08v9.573c-4.351 0-10.232.482-13.858-.805-3.384-1.206-5.317-2.735-7.009-5.47-1.612-2.494-2.256-5.39-2.256-8.447 0-5.39 2.739-10.861 7.815-13.274 4.029-2.092 8.46-1.69 12.488.08 6.124 2.816 8.943 9.01 8.057 15.688zm32.872-34.996v47.787h11.522v-11.424h.886c3.545 0 3.464 3.138 3.464 4.827v6.597h11.522v-4.344c0-3.058.08-6.034-1.128-8.206-.967-1.69-2.981-3.299-4.995-4.023 3.786-2.494 4.27-6.033 5.72-9.734l.967-2.574h-11.763l-1.692 5.47c-.484 1.529-.806 3.379-2.095 3.379h-.886v-27.755zm-30.375 47.626h11.522v-14.803c0-1.528-.081-2.816 1.128-3.54.322-.16.644-.321.966-.321.323 0 .726.08 1.048.321 1.128.724 1.047 2.012 1.047 3.54v14.803h11.522v-16.09c0-3.379-.323-8.447-5.801-11.665-2.337-1.368-5.076-1.85-7.816-1.85-2.739 0-5.398.482-7.815 1.85-5.559 3.218-5.801 8.286-5.801 11.665z" fill-rule="evenodd"/><path d="m212.138 1.022c1.934 0 3.625.805 4.915 2.012 1.289 1.287 2.014 2.976 2.014 4.907 0 1.93-.806 3.62-2.014 4.907-1.29 1.288-2.981 2.012-4.915 2.012s-3.626-.805-4.915-2.011c-1.289-1.288-2.014-2.977-2.014-4.908 0-1.93.806-3.62 2.014-4.907a7.011 7.011 0 0 1 4.915-2.012zm0 1.368c-1.531 0-2.901.644-3.948 1.61-1.047 1.045-1.611 2.413-1.611 3.941 0 1.529.644 2.896 1.611 3.942 1.047 1.046 2.417 1.61 3.948 1.61s2.9-.645 3.948-1.61c1.047-1.046 1.611-2.413 1.611-3.942 0-1.528-.644-2.896-1.611-3.942-1.048-.965-2.417-1.609-3.948-1.609z"/><path d="m210.768 8.585v3.298h-1.047v-7.723h2.175c.886 0 1.531.16 2.175.402.564.242.887.885.887 1.85 0 1.127-.564 1.77-1.853 2.092l2.175 3.46h-1.209l-2.094-3.299zm0-3.54v2.655h1.37c.322 0 .564-.08.725-.08.644-.162.967-.564.967-1.288s-.323-1.126-.967-1.207c-.081 0-.322-.08-.645-.08h-.322z"/></g></svg>