<svg fill="none" height="96" viewBox="0 0 96 96" width="96" xmlns="http://www.w3.org/2000/svg"><g fill="#c7c7c7"><path d="m82.2857 36.9427c0-19.0286-15.3428-34.37141-34.2857-34.37141s-34.2857 15.34281-34.2857 34.28571v.0857c-7.62859.4286-13.7143 6.7714-13.7143 14.4857v1.7143c0 8.0572 6.51429 14.5714 14.5714 14.5714h.7715l6.0857 9.6858c4.2857 6.8571 11.5714 10.8857 19.6285 10.8857h1.2c.7715 2.9143 3.4286 5.1428 6.6 5.1428 3.7715 0 6.8572-3.0857 6.8572-6.8571s-3.0857-6.8572-6.8572-6.8572c-3.1714 0-5.8285 2.2286-6.6 5.1429h-1.2c-6.8571 0-13.1142-3.5143-16.7142-9.3428l-4.9715-7.8001h1.2c1.8857 0 3.4286-1.5428 3.4286-3.4285v-24c0-1.8857-1.5429-3.4286-3.4286-3.4286h-3.4285c0-17.0571 13.8-30.85714 30.8571-30.85714s30.8571 13.80004 30.8571 30.85714h-3.4285c-1.8857 0-3.4286 1.5429-3.4286 3.4286v24c0 1.8857 1.5429 3.4285 3.4286 3.4285h6c8.0571 0 14.5714-6.5142 14.5714-14.5714v-1.7143c0-7.7143-6.0857-14.0571-13.7143-14.4857zm-33.4286 46.2c1.8858 0 3.4286 1.5429 3.4286 3.4286s-1.5428 3.4286-3.4286 3.4286c-1.8857 0-3.4285-1.5429-3.4285-3.4286s1.5428-3.4286 3.4285-3.4286zm-28.2857-42.8571v24h-6c-6.1714 0-11.14283-4.9714-11.14283-11.1429v-1.7143c0-6.1714 4.97143-11.1428 11.14283-11.1428zm72 12.8571c0 6.1715-4.9714 11.1429-11.1428 11.1429h-6v-24h6c6.1714 0 11.1428 4.9714 11.1428 11.1428z"/><path d="m62.228 15.5146c-.1715-.0857-.4286-.2572-.6858-.4286-.2571-.1714-.5142-.3429-.6857-.4286-.7714-.5143-1.8857-.2571-2.3143.6-.4285.8572-.2571 1.8.6 2.3143.1715.0857.4286.2572.6858.4286.2571.1714.5142.3428.7714.4286.2571.1714.6.2571.8571.2571.6 0 1.1143-.2571 1.4572-.8571.4285-.7715.1714-1.8-.6857-2.3143z"/><path d="m48.0006 11.1426c-7.2857 0-14.1429 3.1714-18.8572 8.6571-.6.6857-.5143 1.8.1715 2.4.3428.2572.6857.4286 1.1142.4286.5143 0 .9429-.1714 1.2858-.6 4.1142-4.7143 10.0285-7.4572 16.2857-7.4572 1.5428 0 3.0857.1715 4.6285.5143.9429.1715 1.8-.4285 2.0572-1.2857.2571-.8571-.4286-1.8-1.2857-2.0571-1.8-.4286-3.6-.6-5.4-.6z"/></g></svg>