<svg fill="none" height="92" viewBox="0 0 92 92" width="92" xmlns="http://www.w3.org/2000/svg"><g fill="#c7c7c7"><path d="m78.079 0h-55.1402c-.7742 0-1.4017.627503-1.4017 1.4024 0 .77421.6275 1.40241 1.4017 1.40241h55.1402c2.3542 0 4.269 1.91479 4.269 4.26898v66.89641c0 .7742.6275 1.4024 1.4024 1.4024.7742 0 1.4024-.6282 1.4024-1.4024v-66.89641c-.0007-3.90048-3.1733-7.07379-7.0738-7.07379z"/><path d="m83.7505 78.4575c-.7749 0-1.4024.6275-1.4024 1.4024v5.067c0 2.3535-1.9148 4.269-4.269 4.269h-63.8185c-2.3535 0-4.26899-1.9155-4.26899-4.269v-77.85311c0-2.35419 1.91549-4.26898 4.26899-4.26898h2.649c.7742 0 1.4024-.6282 1.4024-1.40241 0-.774897-.6282-1.4024-1.4024-1.4024h-2.649c-3.8998 0-7.0731 3.17331-7.0731 7.07379v77.85311c0 3.8998 3.1733 7.0731 7.0731 7.0731h63.8185c3.9005 0 7.0731-3.1733 7.0731-7.0731v-5.067c0-.7749-.6275-1.4024-1.4017-1.4024z"/><path d="m26.7048 9.0498c-5.8679 0-10.6423 4.7744-10.6423 10.6423 0 5.8686 4.7744 10.643 10.6423 10.643 5.8686 0 10.6429-4.7744 10.6429-10.643 0-5.8679-4.7743-10.6423-10.6429-10.6423zm0 18.4804c-4.3217 0-7.8382-3.5158-7.8382-7.8374 0-4.3223 3.5165-7.8382 7.8382-7.8382 4.3216 0 7.8381 3.5159 7.8381 7.8382 0 4.3216-3.5165 7.8374-7.8381 7.8374z"/><path d="m43.8841 14.4698h30.5666c.7742 0 1.4024-.6282 1.4024-1.4024 0-.7749-.6282-1.4024-1.4024-1.4024h-30.5666c-.7742 0-1.4017.6275-1.4017 1.4024 0 .7742.6275 1.4024 1.4017 1.4024z"/><path d="m43.8841 21.0939h22.1255c.7749 0 1.4024-.6275 1.4024-1.4024 0-.7742-.6275-1.4024-1.4024-1.4024h-22.1255c-.7742 0-1.4017.6282-1.4017 1.4024 0 .7749.6275 1.4024 1.4017 1.4024z"/><path d="m43.8841 27.7198h26.6815c.7742 0 1.4017-.6282 1.4017-1.4024 0-.7749-.6275-1.4024-1.4017-1.4024h-26.6815c-.7742 0-1.4017.6275-1.4017 1.4024 0 .7742.6275 1.4024 1.4017 1.4024z"/><path d="m43.8841 40.799h30.5666c.7742 0 1.4024-.6283 1.4024-1.4025 0-.7749-.6282-1.4024-1.4024-1.4024h-30.5666c-.7742 0-1.4017.6275-1.4017 1.4024 0 .7742.6275 1.4025 1.4017 1.4025z"/><path d="m43.8841 47.424h22.1255c.7749 0 1.4024-.6276 1.4024-1.4025 0-.7742-.6275-1.4024-1.4024-1.4024h-22.1255c-.7742 0-1.4017.6282-1.4017 1.4024 0 .7749.6275 1.4025 1.4017 1.4025z"/><path d="m43.8841 54.049h26.6815c.7742 0 1.4017-.6283 1.4017-1.4025s-.6275-1.4024-1.4017-1.4024h-26.6815c-.7742 0-1.4017.6282-1.4017 1.4024s.6275 1.4025 1.4017 1.4025z"/><path d="m26.7048 61.708c-5.8679 0-10.6423 4.7744-10.6423 10.6423 0 5.8686 4.7744 10.643 10.6423 10.643 5.8686 0 10.6429-4.7744 10.6429-10.643 0-5.8679-4.7743-10.6423-10.6429-10.6423zm0 18.4804c-4.3217 0-7.8382-3.5158-7.8382-7.8381 0-4.3216 3.5165-7.8375 7.8382-7.8375 4.3216 0 7.8381 3.5159 7.8381 7.8375 0 4.3223-3.5165 7.8381-7.8381 7.8381z"/><path d="m43.8841 67.1281h30.5666c.7742 0 1.4024-.6283 1.4024-1.4025s-.6282-1.4024-1.4024-1.4024h-30.5666c-.7742 0-1.4017.6282-1.4017 1.4024s.6275 1.4025 1.4017 1.4025z"/><path d="m43.8841 73.7523h22.1255c.7749 0 1.4024-.6275 1.4024-1.4024 0-.7742-.6275-1.4017-1.4024-1.4017h-22.1255c-.7742 0-1.4017.6275-1.4017 1.4017 0 .7749.6275 1.4024 1.4017 1.4024z"/><path d="m43.8841 80.3781h26.6815c.7742 0 1.4017-.6283 1.4017-1.4025 0-.7749-.6275-1.4024-1.4017-1.4024h-26.6815c-.7742 0-1.4017.6275-1.4017 1.4024 0 .7742.6275 1.4025 1.4017 1.4025z"/><path d="m24.7731 43.8587c-.5475-.5475-1.4361-.5475-1.9835 0-.5475.5475-.5475 1.4354 0 1.9829l3.4589 3.459c.2745.2737.6332.4106.9918.4106.3587 0 .7181-.1369.9918-.4106l7.2352-7.2353c.0071-.007.0134-.014.0204-.0203l4.8038-4.8039c.5475-.5474.5475-1.4353 0-1.9828s-1.4361-.5475-1.9835 0l-3.6682 3.6688c-2.0025-2.2468-4.8642-3.5481-7.935-3.5481-5.8679 0-10.6423 4.7744-10.6423 10.643 0 5.8679 4.7744 10.6422 10.6423 10.6422 5.8686 0 10.6429-4.7743 10.6429-10.6422 0-.7749-.6282-1.4024-1.4024-1.4024-.7749 0-1.4024.6275-1.4024 1.4024 0 4.3216-3.5165 7.8374-7.8381 7.8374-4.3217 0-7.8382-3.5158-7.8382-7.8374 0-4.3224 3.5165-7.8382 7.8382-7.8382 2.3149 0 4.4662 1.0058 5.9451 2.7325l-5.4096 5.4103z"/></g></svg>