<svg fill="none" height="85" viewBox="0 0 85 85" width="85" xmlns="http://www.w3.org/2000/svg" xmlns:xlink="http://www.w3.org/1999/xlink"><clipPath id="a"><path d="m0 0h85v85h-85z"/></clipPath><g clip-path="url(#a)" fill="#c7c7c7"><path d="m84.9987 35.7174c-.0002-.0212-.001-.0423-.002-.0636-.001-.0202-.0025-.0405-.0042-.0606-.0011-.0141-.0021-.0284-.0036-.0423-.0024-.0203-.0053-.0402-.0083-.0603-.0028-.0182-.006-.0367-.0093-.0548-.003-.0167-.0057-.0337-.0093-.0501-.0038-.0178-.0085-.0355-.013-.0533-.0043-.0173-.0089-.0344-.0139-.0515-.0055-.0189-.0105-.0381-.0165-.0569-.0048-.0146-.0102-.0292-.0154-.0438-.0061-.0176-.0129-.0352-.0197-.0525-.0079-.0201-.0156-.0402-.0244-.0599-.0052-.0116-.0107-.0234-.0162-.035-.0086-.0186-.0179-.0371-.0275-.0555-.0101-.0196-.0203-.0393-.0314-.0584-.0033-.0058-.0058-.012-.0091-.0178-.0025-.0041-.0053-.008-.0078-.0121-.011-.0186-.0229-.037-.0347-.0551-.0113-.0176-.0231-.0351-.0351-.0522-.0073-.0104-.0142-.0215-.022-.0318-.0125-.017-.0261-.0332-.039-.0497-.0118-.0148-.0239-.0294-.0362-.0438-.0103-.012-.02-.0247-.0307-.0364-.0127-.0141-.0266-.0274-.0399-.0411-.0124-.013-.0254-.0258-.0383-.0384-.0135-.0129-.0266-.0265-.0404-.039-.0119-.0108-.0249-.0207-.037-.0312-.0143-.0123-.0291-.0244-.0438-.0362-.0163-.0129-.0324-.0262-.049-.0385-.0105-.0076-.0218-.0148-.0324-.0224-.0171-.012-.0347-.0238-.0521-.0351-.0181-.0116-.0364-.0235-.0548-.0345-.0043-.0025-.008-.0055-.0123-.008l-14.3578-8.3275v-24.07588c0-.920394-.7463-1.666634-1.6667-1.666634h-51.2922c-.9203 0-1.6666.746406-1.6666 1.666634v24.07538l-14.356188 8.3275c-.004482.0027-.008301.0057-.012783.0083-.01793.0107-.035693.0223-.053291.0336-.01793.0116-.035859.0236-.053457.0358-.010625.0075-.021914.0147-.032373.0225-.01627.0119-.032041.025-.047979.0376-.015273.0122-.030381.0246-.045156.0372-.012119.0103-.024736.0203-.036523.0309-.013614.0123-.026729.0259-.04001.0387s-.026563.0261-.039346.0393c-.012949.0135-.026562.0266-.039014.0404-.010459.0116-.020253.0242-.030546.0363-.012618.0148-.024903.0297-.037022.0449-.012783.0161-.026064.032-.038017.0484-.007637.0105-.014776.0216-.022413.0322-.012119.0175-.024072.0352-.035693.0532-.011455.0177-.023076.0355-.033867.0538-.00249.0043-.005645.0083-.008135.0126-.003486.0058-.00581.0119-.009131.0177-.010957.0195-.02125.0395-.031709.0595-.009131.0177-.018095.0358-.026728.0539-.005479.0118-.011123.0236-.01627.0356-.008799.0199-.016601.0403-.024736.0607-.006641.0169-.013115.034-.0192579.0511-.0053125.0148-.010791.0296-.0156055.0444-.0061426.0189-.0112891.0383-.0166016.0576-.0048144.0167-.0094628.0335-.0136132.0504-.0044825.0178-.0092969.0357-.0131153.0537-.0034863.0166-.0061425.0337-.0092968.0506-.0033204.0179-.0064747.036-.0091309.0541-.0029883.0201-.0059766.0404-.0083008.0606-.00149412.0141-.00249022.0284-.00365233.0425-.00166015.0201-.0031543.0402-.00415039.0605-.00099609.0212-.00182617.0423-.00199219.0635 0 .0065-.00099609.0128-.00099609.0193v47.3704c0 .9204.746406 1.6666 1.66663 1.6666h81.66657c.9204 0 1.6666-.7464 1.6666-1.6666v-47.3701c-.0001-.0064-.001-.0128-.0011-.0194zm-15.1871-5.8962 10.1995 5.9156-10.1995 5.9163zm-51.2924-26.26219h47.9588v40.02769l-23.9785 13.9086-23.9803-13.9097zm-3.3333 26.26239v11.8306h-.0001l-10.19786-5.9153zm66.4802 51.6192h-78.33317v-42.8103l38.33037 22.2335c.2586.1499.5473.2249.8364.2249.289 0 .5777-.075.8364-.2249l38.33-22.2333z"/><path d="m58.8927 14.5029h-32.7866c-.9204 0-1.6666.7464-1.6666 1.6667 0 .9204.7462 1.6666 1.6666 1.6666h32.7866c.9204 0 1.6666-.7464 1.6666-1.6666 0-.9204-.7462-1.6667-1.6666-1.6667z"/><path d="m58.8927 23.2139h-32.7866c-.9204 0-1.6666.7464-1.6666 1.6666 0 .9204.7462 1.6666 1.6666 1.6666h32.7866c.9204 0 1.6666-.7464 1.6666-1.6666s-.7462-1.6666-1.6666-1.6666z"/><path d="m58.8927 31.9258h-32.7866c-.9204 0-1.6666.7464-1.6666 1.6666 0 .9204.7462 1.6666 1.6666 1.6666h32.7866c.9204 0 1.6666-.7464 1.6666-1.6666s-.7462-1.6666-1.6666-1.6666z"/><path d="m42.4993 40.6367h-16.3932c-.9204 0-1.6666.7464-1.6666 1.6666 0 .9204.7462 1.6667 1.6666 1.6667h16.3932c.9204 0 1.6666-.7464 1.6666-1.6667s-.7462-1.6666-1.6666-1.6666z"/><path d="m68.8716 75.7227h-13.8495c-2.1449 0-2.1484 3.3334 0 3.3334h13.8495c2.1449-.0002 2.1484-3.3334 0-3.3334z"/><path d="m75.1061 75.3594c-2.1449 0-2.1484 3.3334 0 3.3334 2.1448 0 2.1483-3.3334 0-3.3334z"/></g></svg>