<svg width="17" height="17" fill="none" xmlns="http://www.w3.org/2000/svg"><g clip-path="url(#clip0)"><path d="M3.776 9.163l7.568 7.564A.92.92 0 0 0 12 17a.914.914 0 0 0 .656-.273l.56-.556a.932.932 0 0 0 0-1.317L6.862 8.5l6.361-6.358a.92.92 0 0 0 .273-.656.914.914 0 0 0-.273-.657l-.556-.556A.92.92 0 0 0 12.01 0a.914.914 0 0 0-.656.273l-7.578 7.57a.91.91 0 0 0-.27.66c0 .25.094.484.27.66z" fill="#52524E"/></g><defs><clipPath id="clip0"><path fill="#fff" transform="rotate(-180 8.5 8.5)" d="M0 0h17v17H0z"/></clipPath></defs></svg>