<svg fill="none" height="96" width="96" xmlns="http://www.w3.org/2000/svg"><g fill="#c7c7c7"><path d="m14.006 15.975c-3.319 0-6 2.681-6 6v15.994h3.994v-15.994c0-1.106.9-2.006 2.006-2.006h48v-3.994zm0 60c-1.106 0-2.006-.9-2.006-2.006v-20.006h-3.994v20.006c0 3.319 2.681 6 6 6h20.006v-3.994z"/><path d="m63.413 81.131-48.563-48.581a1.992 1.992 0 0 0 -2.83 0l-11.42 11.438a1.992 1.992 0 0 0 0 2.83l48.582 48.563a1.987 1.987 0 0 0 2.813 0l11.418-11.418a1.992 1.992 0 0 0 0-2.832zm-12.844 10.013-45.749-45.75 8.606-8.606 45.75 45.75-8.606 8.606z"/><path d="m87.994 75.975h-30v3.994h21.994v9.994c0 1.106.9 2.006 2.006 2.006h6a8.002 8.002 0 0 0 8.006-8.006c0-4.407-3.58-7.988-8.006-7.988zm0 12h-3.994v-8.006h3.994c2.213 0 3.994 1.8 3.994 3.994.019 2.212-1.781 4.012-3.994 4.012z"/><path d="m87.994 15.975h-9.994v3.994h9.994c2.212 0 3.993 1.8 3.993 3.993v60h4.013v-60c0-4.406-3.581-7.987-8.006-7.987zm-51.41 40.579-6.006 6.006 2.824 2.824 6.006-6.006zm-7.994-8.013-6.006 6.006 2.824 2.824 6.006-6.006zm16.002 16.01-6.006 6.006 2.824 2.824 6.006-6.006zm8.008 8.004-6.006 6.006 2.824 2.824 6.006-6.006zm-32.008-32.005-6.006 6.007 2.824 2.824 6.006-6.006-2.824-2.824z"/><path d="m86.268 4.463-2.756-2.757a6.06 6.06 0 0 0 -8.362 0l-30.413 30.414a1.992 1.992 0 0 0 0 2.831l8.288 8.287a1.987 1.987 0 0 0 2.813 0l30.43-30.412a5.919 5.919 0 0 0 0-8.362zm-2.83 5.53-28.988 29.007-5.475-5.475 29.005-28.987a1.972 1.972 0 0 1 2.7 0l2.756 2.756c.75.75.75 1.95 0 2.7z"/><path d="m53.793 39.919-8.625 2.887 2.888-8.643-3.807-1.275-4.144 12.45a1.813 1.813 0 0 0 -.093.637c0 1.106.9 2.006 2.006 2.006.206 0 .431-.037.619-.093l12.45-4.144zm18.642-32.693-2.824 2.824 8.3 8.3 2.824-2.824z"/><path d="m72 43.969h-30v3.993h30v-3.992zm7.988 0h-3.994v3.993h3.994v-3.992zm8.006 0h-3.994v3.993h3.994v-3.992z"/></g></svg>